<?xml version="1.0" encoding="utf-8"?>
<!-- Generator: Adobe Illustrator 25.0.0, SVG Export Plug-In . SVG Version: 6.00 Build 0)  -->
<svg version="1.1" id="图层_1" xmlns="http://www.w3.org/2000/svg" xmlns:xlink="http://www.w3.org/1999/xlink" x="0px" y="0px"
	 viewBox="0 0 595.28 841.89" style="enable-background:new 0 0 595.28 841.89;" xml:space="preserve">
<style type="text/css">
	.st0{fill:#FFFFFF;}
	.st1{display:none;fill:#FFFFFF;}
	.st2{fill:url(#SVGID_1_);}
	.st3{fill:url(#SVGID_2_);}
	.st4{fill:url(#SVGID_3_);}
	.st5{fill:none;}
</style>
<path class="st0" d="M498.24,254.86c0,120.4-0.02,240.81,0.09,361.21c0,3.75-0.84,4.6-4.59,4.59
	c-93.07-0.12-186.15-0.09-279.22-0.09c-1.73-1.46-1.36-3.18-0.69-5c5-13.78,5.94-28.26,7.18-42.67c0.94-10.92,2.3-21.81,2.82-32.76
	c0.36-7.62-0.2-15.28-0.81-22.9c-0.39-4.99,0.25-5.93,5.06-6.06c9.91-0.27,19.74,0.92,29.61,1.59c3.69,0.25,7.49,0.37,11.24,0.37
	c5.16,0,10.32-0.17,15.47,0.04c20.42,0.81,38.82-6.11,56.6-15.02c13.65-6.84,25.4-16.65,37.93-25.24c0.38-0.26,0.96-0.61,1.34-1.15
	c1.08-1.56,3.61-2.46,2.97-4.75c-0.57-2.03-3-2.36-4.73-2.7c-4.75-0.95-8.94-2.97-12.83-5.75c-2.78-1.99-4.29-1.06-4.63,2.07
	c-0.32,2.95-2.44,4.88-3.89,7.14c-1.25,1.95-3.49,2.89-5.64,1.34c-2.07-1.49-1.43-3.5-0.11-5.27c1.87-2.49,2.65-5.35,2.86-8.39
	c0.21-3.05-0.87-5.41-3.49-7.23c-16.38-11.39-29.96-25.74-43.09-40.61c-8.37-9.48-16.67-19.02-24.31-29.09
	c-5.01-6.61-9.69-13.5-13.63-20.85c-2.18-4.08-2.11-7.79,1.18-11.45c5.11-5.69,9.6-11.92,14.83-17.5c4.13-4.41,5.88-4.13,9.57,0.48
	c10.4,12.99,20.09,26.51,30.04,39.84c4.78,6.41,13.11,16.41,22.17,19.85c-0.38-12.54,15.51-13.31,15.58-13.95
	c0.08-0.72-9.26-8.78-12.61-12.23c-14.01-14.46-27.22-29.62-38.89-46.06c-2.51-3.53-2.09-5.49,1.75-8.29
	c14.93-10.88,31.2-19.29,48.33-26.07c4.33-1.72,8.44-3.97,12.9-5.35c4.69-1.45,6.49-0.36,7.08,4.56c1.05,8.84,3.58,17.24,7.24,25.32
	c1.46,3.24,3.87,5.66,6.95,9.06c0.31-4.05,0-6.95-0.31-9.85c-0.57-5.24,0.43-6.61,5.44-7.56c5.3-1,5.66-1.71,3.23-6.49
	c-3.45-6.77-6.16-13.64-4.24-21.51c0.56-2.31,1.34-3.76,3.88-4.45c3.35-0.92,6.41-2.77,9.66-4c7.46-2.83,15.46-1.99,23.2-2.99
	c1.92-0.25,2.88,0.99,2.97,3.05c0.55,12.64-0.01,25.21-1.97,37.71c-0.43,2.74-4.67,4.46-9.2,4.12c-1.68-0.13-3.23-0.77-4.84-1.15
	c-6.94-1.65-11.85,3.54-17.81,5.12c-0.97,0.26-1.35,1.37-1.56,2.4c-1.02,5.06,3.42,12.72,8.47,14.38c5.07,1.66,10.37,2.4,15.51,3.82
	c5.57,1.53,6.17,2.66,5.65,8.53c-1.62,18.11-5.06,35.87-9.92,53.38c-1.39,5.03-4.14,9.49-5.75,14.45c-1.08,3.33-3.88,3.81-7.94,2.03
	c-5.68-2.5-10.28-6.74-15.62-9.81c-5.75-3.31-11.44-6.72-16.93-10.52c-4.93-3.41-10.83-2.92-16.17-0.67
	c-3.71,1.57-4.61,6.03-2.51,9.92c1.43,2.63,3.23,5.08,5.62,6.95c8.13,6.36,16.3,12.66,25.23,17.89c4.63,2.71,9.56,4.63,14.85,5.67
	c4.71,0.92,5.14,1.64,4.05,6.48c-1.48,6.56-6.42,11.59-7.75,18.27c5.99-5.17,10.33-11.8,14.2-18.62
	c5.71-10.04,11.17-20.24,15.33-31.07c1.61-4.19,3.1-8.34,3.4-12.88c0.55-8.43,4.8-15.86,6.71-23.95
	c3.89-16.51,6.77-33.21,10.09-49.83c2.18-10.93,3.15-21.99,4.14-33.08c0.64-7.14,0.75-14.23,0.77-21.35
	c0.01-3.35,1.29-4.27,4.63-4.75c9.42-1.38,18.89,0.05,28.31-0.99C491.76,254.2,495.19,251.69,498.24,254.86z"/>
<path class="st1" d="M98.64,534.63c0-103.17,0.02-206.34-0.1-309.51c0-3.62,0.77-4.34,4.35-4.33c109.14,0.12,218.28,0.1,327.42,0.1
	c5.08,5.69,5.8,13.02,7.38,19.99c0.48,2.14-1.17,3.1-3.25,3.56c-7.9,1.74-15.99,2.47-23.78,4.84c-26.22,7.97-52.3,16.31-77.38,27.46
	c-6.91,3.07-14.51,4.94-20.58,9.5c-22.3,16.72-42.69,35.47-60.89,56.73c-18.12,21.16-28.47,45.93-35.61,72.28
	c-2.34,8.63-2.95,17.72-3.24,26.78c-0.43,13.58-1.11,27.16-0.95,40.76c0.06,5.24,1.4,10.34,1.21,15.61
	c-0.14,4.05-0.96,4.82-4.91,4.4c-11.03-1.15-21.9-1.04-32.68,2.53c-7.87,2.61-15.98,4.6-24.04,6.62
	c-16.99,4.27-32.5,11.7-47.14,21.15C102.69,534.23,101.11,536.12,98.64,534.63z"/>
<linearGradient id="SVGID_1_" gradientUnits="userSpaceOnUse" x1="181.5052" y1="536.6824" x2="470.2354" y2="258.8151">
	<stop  offset="0" style="stop-color:#2CA6BB"/>
	<stop  offset="0.5279" style="stop-color:#02588C"/>
	<stop  offset="1" style="stop-color:#035C91"/>
	<stop  offset="1" style="stop-color:#0F437E"/>
</linearGradient>
<path class="st2" d="M100.02,533.56c17.56-13.61,39.64-25.21,60.77-30.7c16.48-4.29,23.66-5.45,43.72-8.68
	c0.24-0.25,2.05-0.15,2.16-0.85c0.47-3.21-0.37-30.64,1.05-53.29c0.82-13.11,3.73-25.28,4.64-28.52
	c3.4-12.12,10.12-23.8,15.32-35.45c9.29-20.82,24.19-36.98,39.28-53.39c13.62-14.81,29.6-26.53,45.71-38.18
	c9.33-6.74,20.2-10.67,30.74-15.01c11.32-4.66,22.88-8.84,34.52-12.63c15.59-5.08,31.42-9.37,47.44-12.9
	c0.16-0.04,0.33-0.04,0.49-0.07c11.29-1.49,10.42-1.25,7.35-12.05c-1.03-3.63-3.03-7.05-4.68-10.94c-0.02-0.05,0.01-0.11,0.06-0.11
	c1.07,0.01,3.72,0.09,4.69,0.1c0.01,0,0.02,0,0.03,0.01c3.11,1.5,4.51,4.19,5.35,7.39c2.45,9.34,4.01,18.85,5.38,28.39
	c0.41,2.87-0.14,5.67-0.59,8.43c-1.54,9.6-0.01,19.3-1.15,28.92c-0.25,2.12,0.69,4.08,3.15,4.37c2.38,0.29,3.73-1.32,4.35-3.35
	c1.48-4.81,1.31-9.87,1.91-14.81c2.23-18.2,1.32-36.21-3.7-53.92c-0.52-1.84-0.59-3.54,0.72-4.92c1.23-0.21,2.13-0.37,3.36-0.58
	c3.32,1.52,3.52,4.66,4.22,7.61c2,8.53,3.08,9.41,11.9,8.94c8.37-0.45,16.33-2.76,24.1-5.79c2.01-0.79,3.74-3.88,5.59-1.79
	c0.01,0.02,0.01,0.03,0.02,0.05c0,1.04,0.3,5.64,0.3,6.66c0,0.01-0.01,0.02-0.01,0.03c-1.24,2.51-3.28,2.52-5.88,3.41
	c-8.07,2.77-16.1,5.73-24.86,5.39c-0.91-0.03-1.83,0-2.73,0.17c-1.65,0.3-3.61,0.63-3.46,2.78c0.15,2.25,2.24,2.16,3.86,2.14
	c8.78-0.13,17.59,0.8,26.34-0.62c2.62-0.43,5.07-0.19,6.83,2.2c-0.57,1.35-0.72,1.71-1.29,3.06c-11.95,1.76-24.04,1.45-36.05,2.31
	c-2.62,0.19-3.58,0.74-3.52,3.68c0.27,12.98-1.52,25.85-2.44,38.77c-1.28,17.89-5.78,35.2-9.18,52.72
	c-3.13,16.14-7.8,31.83-13.17,47.25c-6.84,19.68-17.44,37.51-30.17,54.02c-0.2,0.26-0.37,0.57-0.61,0.79
	c-1.66,1.53-3.49,4.25-5.73,2.72c-2.95-2.02-0.8-4.32,0.93-6.44c4.65-5.69,8.22-12,10.24-19.14c0.41-1.44,0.8-2.63-1.3-2.74
	c-9.43-0.49-17.2-5.3-24.36-10.56c-8.23-6.05-17.28-11.1-23.86-19.42c-2.96-3.75-3.25-7.43-2.08-11.07c1.16-3.6,4.83-5.02,8.61-5.93
	c9.24-2.25,15.65,3.07,22.79,7.41c8.21,4.99,15.83,10.9,24.41,15.31c3.36,1.72,4.94,1.22,6.17-2.43
	c4.69-13.87,7.89-28.07,10.65-42.44c1.61-8.36,1.97-16.84,3.55-25.16c0.51-2.66-1.03-2.96-3-3.42c-6.29-1.48-12.51-3.26-18.81-4.67
	c-3.11-0.7-4.66-2.32-5.77-5.33c-1.68-4.55-3.06-9.1-3.35-13.93c-0.12-2.03-0.61-4.09,3.06-2.91c4.2,1.36,7.82-1.25,10.83-3.73
	c4.07-3.35,8.56-1.63,12.02-0.43c5.77,2.01,8.47,1.46,9.6-4.48c2.06-10.83,1.56-21.82,2.03-32.75c0.09-2.05-0.85-2.44-2.75-2.3
	c-10.83,0.83-21.36,2.8-31.48,6.95c-2.07,0.85-2.15,2.12-2.34,3.81c-0.92,8.36,1.31,15.74,6.58,22.27c0.98,1.21,2.79,2.46,1.95,4.16
	c-0.88,1.78-2.71,2.91-4.87,3.03c-1.16,0.07-2.33,0.1-3.49,0.07c-3.63-0.09-5.41,0.5-4.16,5.13c1.09,4.06,0.26,8.61,2.89,12.4
	c0.48,0.7,0.46,1.64-0.35,2.23c-1.16,0.86-2.22,0.24-3.19-0.43c-4.47-3.08-8.03-7.04-10.41-11.88c-4.26-8.69-7-17.86-7.7-27.58
	c-0.1-1.4,0.61-3.66-2.57-2.3c-21.38,9.14-43.02,17.72-62.05,31.52c-2.27,1.65-2.91,2.45-1.06,5.07
	c11.08,15.58,23.51,30.01,36.73,43.77c4.94,5.14,10.33,9.84,16.26,13.87c1.73,1.18,3.46,2.4,2.76,4.7c-0.74,2.43-2.92,1.5-4.67,1.44
	c-7.34-0.23-13.15,5.01-13.05,12.4c0.06,4.27-1.83,3.56-4.14,2.25c-7.16-4.06-13.39-9.44-18.37-15.85
	c-12.42-15.97-24.4-32.28-36.5-48.5c-1.3-1.75-2.35-2.15-3.83-0.37c-5.84,7.02-11.73,14-17.51,21.07c-2,2.44-0.4,4.67,0.86,6.86
	c9.68,16.8,22.02,31.55,34.74,46.08c12.61,14.4,31.13,30.86,44.96,44.13c2.84,2.72,3.36,6.14,1.19,12.09
	c-2.32,6.37-15.39,11.22-20.26,10.04c-6.75-1.63,4.94,5.23,5.6,3.85c0.66-1.38,3-0.53,4.44-0.79s14.81-1.76,16.35-13.82
	c0.16-1.23-0.1-1.97,0.19-3.61c2.18-2.23,3.28-0.71,4.6,0.54c5.18,4.92,12.72,6.89,19.13,9.46c0.99,0.39,2.11,0.4,3.05-0.1
	c0.98-0.52,0.9-1.08,2.13-2.43c2.55-3.15,6.47,1.53,3.57,3.91c-6.46,7.63-15.46,13.38-23.79,19.06
	c-8.63,5.89-35.69,29.43-63.82,33.96c-0.01,0-39.75,0.91-61.67,0c-4.95-0.21-12.63-1.34-17.61-1.36c-1.14,4.58-3.81,79.13-5.53,88.1
	c-0.98,5.13-3.15,9.74-4.81,14.58c-0.03,0.02-0.05,0.03-0.08,0.05h-28.88c-0.02-0.01-0.04-0.02-0.06-0.02
	c-1.71-1.62-1.11-3.22,0.03-4.86c9.09-13.11,11.03-28.73,15.18-43.56c1.15-4.1-0.12-5.25-4.33-4.56c-3.3,0.54-6.62,0.6-9.92,0.95
	c-4.73,0.5-7.55-2.48-7.98-7.18c-0.43-4.63,0.08-8.82,3.17-11.83c-1.91,2.54-4.06,5.46-3.25,9.6c0.37,1.91,1.8,6.87-0.5,8.01
	c-2.54,1.26-5.3-3.03-7.33-4.46c-6.42-4.5-8.5-11.7-12.04-18c-4.19-7.44-4.22-7.43-11.8-3.91c-8.6,3.99-17.21,7.87-25.18,13.14
	c-6.45,4.27-11.97,9.48-17.4,14.88c-1.96,1.95-3.86,4.69-8.3-0.79C97.48,554.57,98.4,546.95,100.02,533.56z"/>
<path class="st0" d="M98.83,570.4c13.64-14.92,54.15-36.74,56.69-36.35c2.9,0.44,16.39,26.06,18.49,28.64
	c2.1,2.59,3.92,2.54,3.92,2.54s-0.36-4.48-0.49-5.5c-0.95-7.43,1.71-15.16,9.39-17.04c0.4-0.1,1.78,1.87,2.21,1.78
	c-5.62,0.85-9.29,8.85-9.43,14.46c-0.07,2.63,0.4,4.47,1.54,5.63c1.14,1.15,22.54-1.4,23.25-1.09c0.71,0.31-2.11,48.9-10.55,60.41
	c-7.79-0.89-40.93-3.31-57.25-3.31c-1.9-1.37-4.3-1.4-6.37-2.42c-4.8-2.35-4.95-2.28-6.53,2.17c-0.82,0.19-1.07,0.25-1.89,0.44
	c-3.03-2.79-3.5-6.82-4.48-10.39c-0.77-2.81-1.84-5.08-3.89-6.96c-3.75-3.43-7.39-6.97-10.43-11.05c-2.85-3.83-4.24-8.49-5.89-12.9
	C97.74,576.19,98.22,573.66,98.83,570.4z"/>
<path class="st0" d="M447.49,220.88c1.06,0,0.64-2.59,0.91-1.56c1.39,5.17,3.26,10.9,4.87,21.06c1.89,14.32,1.34,18.82,1.13,28.26
	c-0.34,15.13-2.5,27.46-3.37,31.91c-0.21,1.07-1.13,1.86-2.22,1.89c-2.58,0.08-7.13,0-8.57-1.46c-1.21-1.22-1.22-3.64-0.57-7.84
	c1.77-11.53,1.82-23.28,1.67-34.71c-0.16-11.48-2.07-23.29-6.6-34.29c-0.64-1.56-4.23-6.87-2.55-6.87L447.49,220.88z"/>
<path class="st0" d="M98.64,614.57c0-8.33,0-16.65,0-24.98c2.28-1.07,3.17,0.87,4.12,2.13c2.77,3.67,5.44,7.64,9.12,10.23
	c4.82,3.4,5.11,8.64,7,13.25c0.84,2.06-0.36,3.66-2.44,4.06c-4.59,0.9-9.22,0.83-13.83,0.06C99.94,618.89,99.88,616.22,98.64,614.57
	z"/>
<linearGradient id="SVGID_2_" gradientUnits="userSpaceOnUse" x1="98.4984" y1="602.3702" x2="121.6208" y2="602.3702">
	<stop  offset="0" style="stop-color:#2CA6BB"/>
	<stop  offset="0.5279" style="stop-color:#02588C"/>
	<stop  offset="1" style="stop-color:#035C91"/>
	<stop  offset="1" style="stop-color:#0F437E"/>
</linearGradient>
<path class="st3" d="M98.54,617.32c5.45,0,11.18-0.08,16.39-0.74c1.11-0.14,1.89-1.08,1.33-2.05c-3.64-6.3-13.6-20.86-17.62-24.94
	v-6c5,5.42,21.32,29.73,22.98,36.97c-5.66,0-23,0.59-23,0.59S98.41,620.33,98.54,617.32z"/>
<linearGradient id="SVGID_3_" gradientUnits="userSpaceOnUse" x1="121.4943" y1="615.7643" x2="136.6057" y2="615.7643">
	<stop  offset="0" style="stop-color:#275FAC"/>
	<stop  offset="1" style="stop-color:#0F437E"/>
</linearGradient>
<path class="st4" d="M123.62,620.56c-0.67-2.36-1.36-4.72-2.01-7.09c-0.29-1.05-0.06-2.05,0.99-2.5c0.51-0.22,10.39,5.85,14.01,9.59
	c-1.66,0-3.33,0-4.99,0c-1.66-0.66-3.61-0.87-4.99,0C125.62,620.56,124.62,620.56,123.62,620.56z"/>
<path class="st0" d="M126.62,620.56c0.28-1.28-1.53-2.25-0.47-3.75c2.06,0.92,4.05,1.91,5.46,3.75
	C129.95,620.56,128.28,620.56,126.62,620.56z"/>
<path class="st0" d="M226.24,448.61c4.91,4.14,22.71,25.65,29.4,33.05c3.45,0.13,16.51,1.43,16.51,1.43s-0.17-6.79-2.22-17.13
	c-11.66-14.1-25.3-28.61-32.75-41.98c-2.22-3.99-2.58-7.9-0.44-12.28c3.77-7.73,7.14-15.66,10.44-23.61
	c1.48-3.58,2.75-3.21,4.53-0.39c4.96,7.86,9.57,15.98,14.99,23.5c8.11,11.26,19.15,19.71,29.44,28.83
	c9.33,8.28,19.31,15.76,29.09,23.49c5.59,4.42,12.07,5.37,18.8,6.41c-0.85,1.05-1.7,0.71-2.5,0.7c-1.12,0-2.48-0.44-2.96,1.07
	c-0.43,1.38,0.74,2.1,1.59,2.84c4.62,4.06,9.69,7.51,15.07,10.6c-1.75,3.35-5.24,4.26-7.99,5.84c-6.85,3.94-13.17,8.84-20.74,11.54
	c-2.09,0.74-3.7,0.76-5.54-0.45c-11.04-7.26-47.06-33.68-47.06-33.68l0.95,17.3l-17.05-0.92c0,0,18.79,14,31.81,20.65
	c-2.39,1.88-60.36-1.41-64.35-2.94C224.37,495.89,225.22,460.39,226.24,448.61z"/>
<path class="st0" d="M214.29,427.7c2.5,7.24,7.45,17.28,7.45,17.28s-3.19,98.85-1.59,97.96c1.59-0.89-7.65-2.85-7.6-4.5
	C213.25,511.22,211.9,445.92,214.29,427.7z"/>
<path class="st0" d="M207.04,540.12c-0.24,2.46-13.39,4.58-18.29,5.17c-0.15,0.02-2.09,0.17-2.68,0c-0.59-0.17,0.17-0.65,0.17-0.65
	s-8.89-16.29-8.27-20.81c0.24-1.74,1.45-2.17,2.57-2.67c6.7-3.01,25.25-7.07,26.4-6.63C208.85,515.25,207.65,533.84,207.04,540.12z"
	/>
<path class="st0" d="M345.16,475.01c12.17-2.46,16.71-7.05,17.3-16.9c5.22,3.36,10.27,6.66,16.32,7.99
	c2.32,0.51,3.05,2.04,0.58,4.03c-5.44,4.39-11.41,7.95-17.25,11.72c-1.94,1.25-4.09,1.27-6.11,0
	C352.67,479.77,349.34,477.66,345.16,475.01z"/>
<path class="st0" d="M401.24,254.7c0.73-1.66,2.91-2.38,5.42-2.92c8.73-1.86,17.46-3.77,26.15-5.79c5.76-1.34,4.38,3.61,5.26,6.14
	c0.9,2.59,0.72,5.54-3.34,5.44c-3.37-0.08-24.09,3.86-27.12,5.18c-3.61,1.57-5.15,2.2-5.81,0.97
	C401.35,262.86,400.88,255.52,401.24,254.7z"/>
<path class="st0" d="M172.04,505.33c0.79-0.87,34.14-8.19,34.58-6.53s-0.26,9.39,0.44,10.94c-8.1,0.96-31.81,6.47-31.81,6.47
	S171.26,506.19,172.04,505.33z"/>
<path class="st0" d="M326.06,298.26c-2.67,1.03-13.58,9.37-16.17,10.47c-1.46-1.44-8.29-10.89-8.29-10.89s15.19-12.24,17.68-12.24
	C320.59,287.27,325.52,295.88,326.06,298.26z"/>
<path class="st0" d="M432.26,392.97c-6.62,19.03-26.7,55.25-30.28,56.18c0.69,1.19,8.93-15.64,14.75-31.76
	c4.87-13.47,8.23-26.03,8.23-26.03S428.92,393,432.26,392.97z"/>
<path class="st0" d="M298.03,509.76c2.68,1.65,4.21,2.73,6.13,4.43c-2.74,1.68-65.36,0-78.14-1.32c-0.24-2.93-0.24-5.49-0.24-5.49
	S296.4,512.75,298.03,509.76z"/>
<path class="st0" d="M451.79,218.49l5.13,19.97c0.22,0.85,1.02,1.4,1.89,1.3c6.89-0.79,35.22-4.26,40.15-8.51
	c5.62-4.85-14.43-15.19-14.43-15.19L451.79,218.49z"/>
<path class="st0" d="M498.83,235.21c0,0-17.4,5.6-31.39,6.66c-3.41,0.26-6.42,0.83-8.74,1.31c-0.98,0.2-1.67,1.08-1.61,2.08
	c0.13,2.3,0.43,5.53,0.64,7.55c0.11,1.08,1,1.89,2.08,1.89c7.56,0,35.43-0.17,39.64-2.81C504.32,248.83,498.83,235.21,498.83,235.21
	z"/>
<path class="st1" d="M498.24,251.86c-11.99,1.82-24.13,2.27-36.15,1.78c-1.61-0.06-3.02,0.35-3.83-0.28
	c-0.52-0.41-0.56-1.25-0.72-2.91"/>
<polygon class="st5" points="125.13,615.76 126.57,621.15 132.7,621.57 133.98,621.57 "/>
</svg>
